<svg xmlns="http://www.w3.org/2000/svg" viewBox="0 0 600 700" width="100%" height="100%">
  <defs>
    <linearGradient id="grad-hero" x1="0%" y1="0%" x2="100%" y2="100%">
      <stop offset="0%" stop-color="#18181b"/>
      <stop offset="50%" stop-color="#09090b"/>
      <stop offset="100%" stop-color="#000000"/>
    </linearGradient>
    <filter id="noise">
      <feTurbulence type="fractalNoise" baseFrequency="0.8" numOctaves="3" stitchTiles="stitch"/>
      <feColorMatrix type="matrix" values="1 0 0 0 0  0 1 0 0 0  0 0 1 0 0  0 0 0 0.15 0"/>
      <feComposite in2="SourceGraphic" in="gl" operator="in"/>
    </filter>
  </defs>
  
  <rect width="600" height="700" fill="url(#grad-hero)"/>
  
  <!-- Silhouette of person with headphones -->
  <g fill="#27272a">
    <!-- Body / Hoodie -->
    <path d="M120 700 C 140 500, 200 440, 300 440 C 400 440, 460 500, 480 700 Z" fill="#1e1e24"/>
    <!-- Neck -->
    <path d="M260 460 L 340 460 L 330 380 L 270 380 Z" fill="#2d2d35"/>
    <!-- Head Profile -->
    <ellipse cx="300" cy="310" rx="90" ry="110" fill="#3f3f46"/>
    <path d="M 280 270 Q 380 280 370 340 Q 350 400 290 410 Z" fill="#4b4b54"/>
    <!-- Headphones headband -->
    <path d="M 210 260 C 210 170, 390 170, 390 260" fill="none" stroke="#ffc72c" stroke-width="16" stroke-linecap="round"/>
    <!-- Headphone Ear Cup -->
    <rect x="290" y="270" width="46" height="74" rx="23" fill="#ffc72c" stroke="#18181b" stroke-width="4"/>
    <!-- Headphone cushion -->
    <rect x="282" y="280" width="16" height="54" rx="8" fill="#18181b"/>
  </g>

  <!-- High contrast lighting overlay -->
  <circle cx="310" cy="300" r="180" fill="white" opacity="0.04"/>
  
  <!-- Subtle Badge -->
  <rect x="40" y="40" width="140" height="26" rx="13" fill="rgba(0,0,0,0.6)" stroke="rgba(255,255,255,0.2)"/>
  <text x="110" y="57" fill="#ffc72c" font-family="'Space Grotesk', sans-serif" font-size="11" font-weight="700" text-anchor="middle" letter-spacing="1">HERO-LISTENER</text>

  <text x="300" y="660" fill="rgba(255,255,255,0.3)" font-family="'Space Grotesk', sans-serif" font-size="12" font-weight="600" text-anchor="middle">ASSET: hero-listener.jpg (600x700)</text>
</svg>
